<svg width="15" height="15" viewBox="0 0 50 50" fill="none" xmlns="http://www.w3.org/2000/svg">
<path d="M45.5243 0.808212L25.0026 21.3321L4.48095 0.808212C3.98737 0.356496 3.33856 0.112651 2.66968 0.127473C2.0008 0.142295 1.36343 0.414643 0.890348 0.887779C0.417263 1.36091 0.144944 1.99835 0.130124 2.6673C0.115303 3.33626 0.359123 3.98513 0.81079 4.47876L21.322 25.0026L0.805584 45.5212C0.554933 45.7601 0.354564 46.0467 0.216254 46.3642C0.0779454 46.6816 0.00448712 47.0236 0.000199221 47.3698C-0.00408868 47.7161 0.0608802 48.0597 0.191286 48.3805C0.321691 48.7013 0.514901 48.9927 0.75956 49.2378C1.00422 49.4828 1.29539 49.6764 1.61595 49.8073C1.93652 49.9382 2.28001 50.0036 2.62623 49.9998C2.97246 49.9961 3.31443 49.9231 3.63205 49.7852C3.94966 49.6473 4.23652 49.4473 4.47574 49.197L25.0026 28.6784L45.5243 49.2022C46.0178 49.6539 46.6666 49.8978 47.3355 49.8829C48.0044 49.8681 48.6418 49.5958 49.1149 49.1226C49.5879 48.6495 49.8603 48.0121 49.8751 47.3431C49.8899 46.6742 49.6461 46.0253 49.1944 45.5317L28.6728 25.0078L49.1944 4.47876C49.4451 4.23987 49.6454 3.95327 49.7837 3.63581C49.9221 3.31835 49.9955 2.97645 49.9998 2.63019C50.0041 2.28394 49.9391 1.94032 49.8087 1.61954C49.6783 1.29875 49.4851 1.00728 49.2404 0.762244C48.9958 0.517212 48.7046 0.323568 48.384 0.192694C48.0635 0.0618204 47.72 -0.00364131 47.3738 0.000156248C47.0275 0.00395381 46.6856 0.0769345 46.368 0.214808C46.0503 0.352682 45.7635 0.552666 45.5243 0.803006V0.808212Z" fill="white"/>
</svg>
