<svg xmlns="http://www.w3.org/2000/svg" xmlns:xlink="http://www.w3.org/1999/xlink" viewBox="0 0 52.24 565.51"><defs><style>.cls-1{fill:none;}.cls-2{clip-path:url(#clip-path);}.cls-3{fill:#fff;}</style><clipPath id="clip-path" transform="translate(-0.1 -0.02)"><rect class="cls-1" width="52.2" height="565.4"/></clipPath></defs><g id="Layer_2" data-name="Layer 2"><g id="Layer_1-2" data-name="Layer 1"><g class="cls-2"><path class="cls-3" d="M25.6,404.72c-.8-5-6.1-5.5-6.9-4.9-.4.3-3.5-2.7-4.1-3a11.58,11.58,0,0,0-7.6-.2,8.29,8.29,0,0,0-6,5.6c-1.9,4.3-.8,9.9,3.4,12.4,2.1,1.6,3.5,4,6,5,.7.3,1.1.1,1.3.7.9,2.5-.4,6.4-.3,8.9-.5,6.1,2,11.9,2,18,.8,5.5,2.3,10.9,2.3,16.5,0,17.6.8,29.8,1.8,44.6.3,10.4,0,20.9,1.2,31.3.5.7,1.7.1,2,1.7a13.83,13.83,0,0,1-1.7,9.5c-.9,2.2-2.4,5.6-.2,7.5,1.8,1.6,4.8,1.7,6.3-.4.8-1.1,3-3.3,3.9-1.2,1.1,2.6-.6,6.3,2.3,8,2.8,2.1,6.7-.2,7.4-3.3a75.44,75.44,0,0,1,3.9-11.3,13.28,13.28,0,0,0-1-12.7c-.8-13.3-.4-26.6-.6-40,0-4.5-.1-9-.1-13.5,3.2-1.9,2.3-6.3,2.7-9.4.1-2.8-.4-6,1.5-8.3,1.3-4.6,3.9-8.9,4.6-13.7a26.17,26.17,0,0,0,2.2-16.3c-1.7-4.1-2.9-8.3-4.6-12.3a24.36,24.36,0,0,0-5.5-10.1C36.7,410.12,30.7,408.12,25.6,404.72Z" transform="translate(-0.1 -0.02)"/><path class="cls-3" d="M23.79,0h-6.4l.3,407.16h8.5Z" transform="translate(-0.1 -0.02)"/></g></g></g></svg>