<svg width="18" height="18" viewBox="0 0 18 18" fill="none" xmlns="http://www.w3.org/2000/svg">
<path d="M9 0C4.03185 0 0 4.03185 0 9C0 13.9681 4.03185 18 9 18C13.9681 18 18 13.9681 18 9C18 4.03185 13.9681 0 9 0ZM12.6544 13.2423C12.502 13.2423 12.4077 13.1952 12.2661 13.1117C10.0016 11.7472 7.36694 11.6891 4.76492 12.2226C4.62339 12.2589 4.43831 12.3169 4.33306 12.3169C3.98105 12.3169 3.75968 12.0375 3.75968 11.7435C3.75968 11.3698 3.98105 11.1919 4.25323 11.1339C7.2254 10.477 10.2629 10.5351 12.854 12.0847C13.0754 12.2262 13.206 12.3532 13.206 12.6835C13.206 13.0137 12.9484 13.2423 12.6544 13.2423ZM13.6306 10.8617C13.4419 10.8617 13.3149 10.7782 13.1843 10.7093C10.9161 9.36653 7.53387 8.82581 4.5254 9.64234C4.35121 9.68952 4.25685 9.73669 4.09355 9.73669C3.70524 9.73669 3.38952 9.42097 3.38952 9.03266C3.38952 8.64435 3.57823 8.38669 3.95202 8.28145C4.96089 7.99839 5.99153 7.7879 7.50121 7.7879C9.85645 7.7879 12.1319 8.37218 13.9246 9.43911C14.2185 9.61331 14.3347 9.83831 14.3347 10.154C14.331 10.546 14.0262 10.8617 13.6306 10.8617ZM14.7556 8.09637C14.5669 8.09637 14.4508 8.04919 14.2875 7.95484C11.7036 6.4125 7.08387 6.04234 4.09355 6.87702C3.9629 6.91331 3.7996 6.97137 3.6254 6.97137C3.14637 6.97137 2.77984 6.59758 2.77984 6.11492C2.77984 5.62137 3.08468 5.34194 3.41129 5.24758C4.68871 4.87379 6.11855 4.69597 7.6754 4.69597C10.3246 4.69597 13.1008 5.24758 15.1294 6.43064C15.4125 6.59395 15.5976 6.81895 15.5976 7.25081C15.5976 7.74435 15.1984 8.09637 14.7556 8.09637Z" />
</svg>
